<?xml version="1.0" encoding="UTF-8"?>
<svg enable-background="new 0 0 4482.2959 5015.4185" version="1.1" viewBox="0 0 4482.3 5015.4" xmlns="http://www.w3.org/2000/svg">
 <g fill="none" stroke="#000" stroke-linejoin="round" stroke-miterlimit="10" stroke-width="10">
  <polyline points="2087 2418.7 2087 2235.7 2087 1559 2532.3 1301.9 2688.6 1392.3 2241.1 1650.5 2241.1 2324.7 2241.1 2507.7"/>
  <polyline points="2241.1 1650.5 2399.6 1734.2 2399.6 2238.3 2399.6 2416.2 2395.2 2418.8"/>
  <polyline points="2399.7 1734.2 2684.6 1569.7 2684.6 1895.6 2541.9 1813.2 2541.9 1653.5"/>
  <polyline points="2831.5 1474.2 2831.6 1474.1 3134.3 1299.3 2831.6 1124.6 2831.6 1474.1 2831.6 1639.6 3126.4 1466.8 3124.3 1641.7 2684.6 1895.6"/>
  <polyline points="2688.6 1392.2 2688.6 1041.1 2832.1 1124"/>
  <polyline points="2532.3 1301.9 2532.3 788.24 2837.2 964.19 2833.5 792.04 2829.9 626.72 2976.6 533.5"/>
  <polyline points="2976.6 1045.5 3280.2 1220.8 3134.3 1299.3"/>
  <polygon points="4324.6 1290.6 3572.2 1724.2 3572.2 1549.6 4171.9 1206.8"/>
  <polyline points="3572.2 1549.6 3430.4 1465.9 3287.8 1382 3575.8 1215.8 3137.2 958.68"/>
  <polyline points="4323.3 1475.7 4164.6 1567.3 3580 1904.8 3124.3 1641.7"/>
  <line x1="3572.2" x2="3126.4" y1="1724.2" y2="1466.8"/>
  <polyline points="3575.8 1215.8 3575.8 1383.2 3430.4 1466"/>
  <polygon points="3137.2 444.99 3137.2 958.68 2976.6 1045.5 2976.6 533.5 2388.3 193.8 2228.1 99.517 2228.1 99.517 2228.1 99.517 2228.1 99.517 2379.9 7.7318"/>
  <polyline points="2228.1 279.22 2388.3 371.72 2829.9 626.72"/>
  <polyline points="2532.3 788.23 2679.6 703.21 2833.5 792.04"/>
  <polyline points="2395.2 2418.8 2399.6 2416.2 2983.4 2079.1 3430.9 2337.4 3430.9 2157 2985.7 1899.9 2399.6 2238.3"/>
  <polyline points="2553.8 2510.4 2990.4 2258.2 2983.4 2079.1"/>
  <polyline points="2990.3 2258.2 3275.3 2422.7 2993 2585.7 2993 2420.9 3131.3 2341.1"/>
  <polyline points="2993 2585.7 3432.7 2839.6 3585.2 2754 3288.2 2585.1 3734.2 2327.6 3734.2 2677.1 3431.4 2502.2"/>
  <polyline points="3431 2337.5 3735 2161.9 3735 2327.6"/>
  <polyline points="3875.3 2413.6 3875.3 2764 3734.3 2677.1"/>
  <polyline points="4318.6 2157.7 4164.6 2077.2 4023.1 2162.8 3875.8 2252.1 3875.8 1900.2 3430.9 2157"/>
  <polyline points="4030.6 2509.3 4027.4 3017.6 3739.4 2851.4 3737.9 3016.8 3736.5 3181.3 4333.2 3529.5 4336.8 3703.6"/>
  <polyline points="3432.8 2839.6 3432.8 3365.7 4017.4 3703.2"/>
  <polyline points="4336.8 3703.6 3585.2 3268.8 3736.5 3181.3"/>
  <line x1="3585.2" x2="3585.2" y1="3268.8" y2="2754"/>
  <polyline points="4027.3 3017.6 3882.4 3101.3 3738 3016.8"/>
  <line x1="4164.6" x2="4164.6" y1="2077.2" y2="1567.3"/>
  <polygon points="4475.6 1377.9 4475.6 2252.3 4030.6 2509.3 3875.3 2413.6 4318.6 2157.7 4324.6 1290.6 4324.6 1290.6 4324.6 1290.6"/>
  <polyline points="3875.9 1900.1 4023.1 1985.2 4023.1 2167.1"/>
  <polyline points="2831.8 3031.8 2831.8 3360.8 2549.6 3197.8 2692.3 3115.4 2830.5 3195.3"/>
  <polyline points="2841.1 3535.8 2841.1 3536 2841.1 3885.4 3143.6 3710.7 2841.1 3536 2697.7 3453.2 2699.9 3794.8 2549.6 3705.5 2549.6 3197.8"/>
  <polyline points="2983.5 3453 3287.5 3628.5 3144.1 3711.4"/>
  <polyline points="3139.7 3875.8 2836.1 4051.1 2841.1 3885.4"/>
  <polyline points="3583.1 4131.8 3575.8 3958.2 3430.8 3878.5 3279.9 3795.6 3584.7 3619.7 3139.8 3362.8"/>
  <polyline points="2549.6 3705.5 2094 3968.7 2094 4643.7 2094 4821.7"/>
  <polygon points="2405.4 4139.6 2402.4 4830.3 2253.4 4920.5 2254.1 4052.2"/>
  <polygon points="2983.4 2936.3 2831.8 3031.8 2395.3 2779.8 2241.1 2690.8 2241.1 2507.7 2395.3 2596.8 2399.6 2599.3"/>
  <polygon points="3139.8 2848.6 3139.8 3362.8 2983.4 3453 2983.4 2936.3 2399.6 2599.3 2395.3 2596.8 2241.1 2507.7 2395.2 2418.8 2553.7 2510.4 2553.8 2510.4"/>
  <polyline points="2405.4 4139.6 2548.7 4058.6 2548.7 4058.5 2692.7 3977.1 2692.7 4309.6 3134.6 4058.2"/>
  <line x1="2699.9" x2="2254.1" y1="3794.8" y2="4052.2"/>
  <polyline points="2692.7 4309.6 2547.7 4225.9 2548.7 4058.5"/>
  <polygon points="4336.8 3703.6 4336.8 3877.9 3579.5 4315.2 3134.6 4058.2 3139.7 3875.8 3583.1 4131.8 4171.4 3792.2"/>
  <polyline points="3575.8 3958.2 4017.4 3703.2 4176.8 3611.1"/>
  <polyline points="3584.7 3619.6 3584.7 3789.7 3427.1 3880.6"/>
  <polyline points="2241.1 2690.8 2241.1 3364.9 1793.6 3623.2 1950 3713.5 2395.3 3456.4 2395.3 2779.8"/>
  <polyline points="2241.1 3364.9 2082.7 3281.3 2082.7 2777.2"/>
  <polyline points="2082.6 3281.3 1797.7 3445.8 1797.7 3119.9 1940.4 3202.3 1940.4 3361.9"/>
  <polyline points="1650.8 3541.3 1650.6 3541.4 1348 3716.2 1650.6 3890.8 1650.6 3541.4 1650.6 3375.8 1355.9 3548.6 1358 3373.7 1797.7 3119.9"/>
  <polyline points="1793.7 3623.3 1793.7 3974.3 1650.2 3891.5"/>
  <polyline points="1505.7 3970 1202.1 3794.7 1348 3716.2"/>
  <polyline points="1505.7 4482 1652.4 4388.7 1648.8 4223.4 1645.1 4051.3 1950 4227.2 1950 3713.5"/>
  <polygon points="910.07 3291.3 910.07 3465.9 310.37 3808.6 157.66 3724.8"/>
  <polyline points="1345.1 4056.8 906.52 3799.7 1194.5 3633.4 1051.9 3549.5 910.06 3465.9"/>
  <polyline points="317.73 3448.2 902.32 3110.7 1358 3373.7"/>
  <line x1="910.05" x2="1355.8" y1="3291.2" y2="3548.6"/>
  <polyline points="906.49 3799.7 906.49 3632.3 1051.9 3549.5"/>
  <line x1="2093.9" x2="1652.4" y1="4643.7" y2="4388.7"/>
  <polygon points="2253.4 4920.5 2253.4 4920.5 2102.4 5007.7 1345.1 4570.5 1345.1 4056.8 1505.7 3970 1505.7 4482 2094 4821.7"/>
  <polyline points="1950 4227.2 1802.7 4312.2 1648.8 4223.4"/>
  <polyline points="1492 2757.2 1207 2592.7 1489.3 2429.8 1489.3 2594.6 1351 2674.4"/>
  <polyline points="1050.8 2513.2 1050.7 2513.1 748.03 2338.3 748.03 2687.9 1050.7 2513.1 1194.1 2430.4 897.06 2261.4 1049.5 2175.9 1489.3 2429.7"/>
  <polyline points="1051.3 2678 747.3 2853.5 747.3 2687.9"/>
  <polyline points="1051.4 2858.5 606.48 3115.3 606.48 2763.4 459.15 2852.7 317.73 2938.3 163.7 2857.8"/>
  <polyline points="607 2601.9 607 2251.4 748.03 2338.3"/>
  <polygon points="2241.1 2507.7 2241.1 2685.7 2082.7 2777.2 1496.6 3115.6 1051.4 2858.5 1051.4 2678 1498.9 2936.3 2082.7 2599.3 2087.1 2596.6"/>
  <polygon points="2241.1 2507.7 2087.1 2596.6 2082.7 2599.3 1498.9 2936.3 1491.9 2757.2 1928.5 2505.1 2087 2418.7"/>
  <polyline points="745.8 1834.1 744.35 1998.6 742.91 2164.1 454.95 1997.9 451.66 2506.2"/>
  <polyline points="310.9 1223.3 464.93 1312.3 1049.5 1649.8 1049.5 2175.9"/>
  <polygon points="897.06 1746.7 745.8 1834.1 149.13 1486 149.13 1314.8 150.83 1315.7"/>
  <line x1="897.06" x2="897.06" y1="2261.4" y2="1746.7"/>
  <polyline points="454.96 1997.9 599.91 1914.2 744.33 1998.7"/>
  <polygon points="607 2601.9 163.7 2857.8 157.66 3724.8 157.66 3724.8 6.6567 3637.5 6.6567 2763.1 451.66 2506.2"/>
  <polyline points="317.73 3633.1 317.73 3448.2 317.73 2938.3"/>
  <polyline points="606.43 3115.3 459.18 3030.3 459.15 2852.7"/>
  <polyline points="2087 2418.7 1498.9 2079.1 1498.9 1562.4 1342.5 1652.6 1342.5 2166.9 1928.5 2505.1"/>
  <line x1="2241.1" x2="2241.1" y1="2324.7" y2="2507.7"/>
  <polyline points="2087 2235.7 1650.5 1983.7 1498.9 2079.1"/>
  <polyline points="1650.5 1983.7 1650.5 1654.7 1932.7 1817.6 1790 1900 1651.8 1820.2"/>
  <polyline points="1641.2 1479.7 1641.2 1479.4 1641.2 1130 1338.7 1304.8 1641.2 1479.4 1784.6 1562.3 1782.4 1220.6 1932.7 1309.9 1932.7 1817.7"/>
  <polyline points="1498.8 1562.5 1194.8 1386.9 1338.2 1304.1"/>
  <polyline points="1342.6 1139.6 1646.2 964.32 1641.2 1130"/>
  <polyline points="899.16 883.7 906.52 1057.3 1051.5 1137 1202.4 1219.8 897.59 1395.8 1342.5 1652.6"/>
  <polyline points="1347.7 957.23 1789.6 705.9 1789.6 1038.4 1933.6 956.97 1933.6 956.84 2076.9 875.82"/>
  <polyline points="2388.3 371.72 2388.3 1046.8 1932.7 1309.9"/>
  <polygon points="2228.1 99.517 2229.6 963.13 2076.9 875.82 2079.9 185.13"/>
  <line x1="2228.2" x2="1782.4" y1="963.23" y2="1220.6"/>
  <polyline points="1789.6 705.91 1934.6 789.6 1933.6 956.93"/>
  <line x1="906.52" x2="464.93" y1="1057.3" y2="1312.3"/>
  <polygon points="1347.7 957.23 1342.6 1139.6 899.17 883.7 310.9 1223.3 149.13 1314.8 149.13 1314.8 149.13 1314.8 149.13 1314.8 145.45 1137.5 902.84 700.26"/>
  <polyline points="897.6 1395.8 897.6 1225.8 1051.5 1137"/>
 </g>
</svg>
